<?xml version="1.0" standalone="no"?>
<!DOCTYPE svg PUBLIC "-//W3C//DTD SVG 20010904//EN" "http://www.w3.org/TR/2001/REC-SVG-20010904/DTD/svg10.dtd">
<svg version="1.0" xmlns="http://www.w3.org/2000/svg"
    width="512.000000pt" height="512.000000pt" viewBox="0 0 512.000000 512.000000"
    preserveAspectRatio="xMidYMid meet">
    <metadata> Created by potrace 1.14, written by Peter Selinger 2001-2017 </metadata>
    <g transform="translate(0.000000,512.000000) scale(0.100000,-0.100000)"
        fill="#000000" stroke="none">
        <path
            d="M2375 5105 c-155 -27 -244 -57 -377 -127 -290 -151 -520 -440 -597
-753 l-17 -70 -175 -1 c-96 0 -199 -6 -229 -13 -30 -7 -65 -14 -77 -17 -105
-21 -312 -122 -424 -206 -296 -223 -468 -562 -474 -933 -5 -266 57 -478 204
-700 89 -136 282 -309 428 -385 48 -25 51 -31 24 -68 -46 -66 -130 -260 -147
-342 -26 -125 -33 -199 -30 -325 2 -77 6 -147 9 -155 4 -8 9 -33 12 -54 8 -57
59 -205 98 -283 146 -295 396 -511 706 -613 126 -41 189 -51 341 -55 208 -6
371 30 555 119 88 43 223 131 255 165 3 3 27 26 53 51 l47 44 48 -45 c65 -63
148 -129 160 -129 6 0 12 -4 14 -9 6 -16 192 -109 272 -136 205 -69 459 -81
672 -32 60 14 190 65 269 105 333 171 574 507 631 882 16 108 11 322 -10 418
-31 142 -77 258 -154 389 l-30 50 52 26 c258 134 476 390 571 672 30 89 31 96
50 210 18 113 12 319 -13 430 -104 461 -457 813 -917 917 -98 22 -351 33 -405
18 -27 -8 -30 -6 -36 18 -35 164 -117 341 -219 477 -68 91 -254 265 -283 265
-6 0 -12 4 -14 9 -12 32 -275 147 -388 170 -30 6 -66 14 -80 17 -53 12 -307
11 -375 -1z" />
    </g>
</svg>